<?xml version="1.0" standalone="no"?><!DOCTYPE svg PUBLIC "-//W3C//DTD SVG 1.1//EN" "http://www.w3.org/Graphics/SVG/1.1/DTD/svg11.dtd"><svg t="1652071133078" class="icon" viewBox="0 0 1024 1024" version="1.1" xmlns="http://www.w3.org/2000/svg" p-id="5578" xmlns:xlink="http://www.w3.org/1999/xlink" width="200" height="200"><defs><style type="text/css">@font-face { font-family: feedback-iconfont; src: url("//at.alicdn.com/t/font_1031158_u69w8yhxdu.woff2?t=1630033759944") format("woff2"), url("//at.alicdn.com/t/font_1031158_u69w8yhxdu.woff?t=1630033759944") format("woff"), url("//at.alicdn.com/t/font_1031158_u69w8yhxdu.ttf?t=1630033759944") format("truetype"); }
</style></defs><path d="M840.32 512a151.68 151.68 0 0 1 33.28-94.72 37.12 37.12 0 0 0 0-41.6l-64-106.88a40.32 40.32 0 0 0-39.68-21.12 151.68 151.68 0 0 1-158.72-96.64A37.12 37.12 0 0 0 576 128H462.72c-26.88 0-40.96 8.96-46.08 23.04a151.68 151.68 0 0 1-168.32 96 37.12 37.12 0 0 0-38.4 18.56l-64 106.24a37.12 37.12 0 0 0 0 42.24 151.68 151.68 0 0 1 0 195.2 37.12 37.12 0 0 0 0 42.24l64 106.24a37.12 37.12 0 0 0 38.4 18.56 151.68 151.68 0 0 1 168.32 96 37.12 37.12 0 0 0 35.2 23.04h112.64c26.88 0 40.96-8.96 46.08-23.04a151.68 151.68 0 0 1 163.84-96.64 40.32 40.32 0 0 0 39.68-21.12l64-106.88a37.12 37.12 0 0 0 0-41.6A151.68 151.68 0 0 1 840.32 512zM512 666.24A154.24 154.24 0 1 1 666.24 512 154.24 154.24 0 0 1 512 666.24z" p-id="5579"></path></svg>