<?xml version="1.0" standalone="no"?><!DOCTYPE svg PUBLIC "-//W3C//DTD SVG 1.1//EN" "http://www.w3.org/Graphics/SVG/1.1/DTD/svg11.dtd"><svg t="1649493758436" class="icon" viewBox="0 0 1024 1024" version="1.1" xmlns="http://www.w3.org/2000/svg" p-id="7513" xmlns:xlink="http://www.w3.org/1999/xlink" width="200" height="200"><defs><style type="text/css">@font-face { font-family: feedback-iconfont; src: url("//at.alicdn.com/t/font_1031158_u69w8yhxdu.woff2?t=1630033759944") format("woff2"), url("//at.alicdn.com/t/font_1031158_u69w8yhxdu.woff?t=1630033759944") format("woff"), url("//at.alicdn.com/t/font_1031158_u69w8yhxdu.ttf?t=1630033759944") format("truetype"); }
</style></defs><path d="M812.581851 744.557714c-20.553143 3.437714-41.728 5.156571-62.866285 5.156572-212.004571 0-384-171.995429-384-384 0-72.557714 21.138286-143.433143 59.428571-203.995429A363.958857 363.958857 0 0 0 164.572709 512c0 201.728 163.986286 365.714286 365.714285 365.714286 110.299429 0 213.723429-50.285714 282.294857-133.156572z m116.004572-48.566857A440.137143 440.137143 0 0 1 530.286994 950.857143C288.586423 950.857143 91.429851 753.700571 91.429851 512A437.028571 437.028571 0 0 1 513.720137 73.728a35.693714 35.693714 0 0 1 34.852572 22.272c6.290286 14.299429 2.304 30.866286-8.557715 41.142857A306.176 306.176 0 0 0 438.858423 365.714286c0 171.446857 139.446857 310.857143 310.857143 310.857143a305.444571 305.444571 0 0 0 130.304-29.147429 36.571429 36.571429 0 0 1 48.566857 48.566857z" fill="" p-id="7514"></path></svg>