<?xml version="1.0" standalone="no"?><!DOCTYPE svg PUBLIC "-//W3C//DTD SVG 1.1//EN" "http://www.w3.org/Graphics/SVG/1.1/DTD/svg11.dtd"><svg t="1652070910819" class="icon" viewBox="0 0 1294 1024" version="1.1" xmlns="http://www.w3.org/2000/svg" p-id="4750" xmlns:xlink="http://www.w3.org/1999/xlink" width="252.734375" height="200"><defs><style type="text/css">@font-face { font-family: feedback-iconfont; src: url("//at.alicdn.com/t/font_1031158_u69w8yhxdu.woff2?t=1630033759944") format("woff2"), url("//at.alicdn.com/t/font_1031158_u69w8yhxdu.woff?t=1630033759944") format("woff"), url("//at.alicdn.com/t/font_1031158_u69w8yhxdu.ttf?t=1630033759944") format("truetype"); }
</style></defs><path d="M360.48384 972.8H51.2L360.30464 336.3584l164.44928 266.60352" fill="#7ECFB8" p-id="4751"></path><path d="M360.48384 998.4H51.2a25.6 25.6 0 0 1-23.02976-36.7872L337.28 325.1712a25.6 25.6 0 0 1 21.73952-14.38208 25.5488 25.5488 0 0 1 23.07584 12.12928l164.44928 266.60352a25.6 25.6 0 1 1-43.5712 26.88L362.97728 389.4528 92.09344 947.2h268.3904a25.6 25.6 0 1 1 0 51.2z" fill="#6E6E96" p-id="4752"></path><path d="M360.48384 972.8l409.33376-921.6 473.66144 921.6z" fill="#89D6C1" p-id="4753"></path><path d="M1243.58144 998.4H360.48384a25.6 25.6 0 0 1-23.39328-35.98848l409.33376-921.6a25.58976 25.58976 0 0 1 22.67136-15.19616c0.24064-0.01536 0.4864-0.01536 0.72704-0.01536a25.59488 25.59488 0 0 1 22.76352 13.89568l472.67328 919.68512a25.59488 25.59488 0 0 1-21.67808 39.2192zM399.86688 947.2h801.67424L771.5072 110.47936 399.86688 947.2z" fill="#6E6E96" p-id="4754"></path><path d="M769.8176 51.2L618.496 391.89504l162.52928 157.40928 163.90656-157.40928z" fill="#F0F0FF" p-id="4755"></path><path d="M781.02528 574.90432a25.5488 25.5488 0 0 1-17.81248-7.20896l-162.52928-157.40928a25.60512 25.60512 0 0 1-5.58592-28.78464L746.42432 40.8064a25.58976 25.58976 0 0 1 22.67136-15.19616c0.24064-0.01024 0.4864-0.01024 0.72704-0.01024a25.59488 25.59488 0 0 1 22.76352 13.89568l175.10912 340.69504a25.6 25.6 0 0 1-5.03808 30.16704l-163.90656 157.40928a25.4976 25.4976 0 0 1-17.72544 7.13728zM649.14944 385.9456l131.94752 127.7952 132.34688-127.104-141.94176-276.16256-122.35264 275.47136z" fill="#6E6E96" p-id="4756"></path><path d="M926.38208 572.59008l-136.52992-34.13504-8.82688 10.84928L1243.47904 972.8 769.8176 51.2z" fill="#6E6E96" opacity=".15" p-id="4757"></path><path d="M414.38208 967.68l220.94336-269.7216L892.25216 972.8l-58.0096-294.38464L1243.47904 972.8" fill="#6E6E96" opacity=".15" p-id="4758"></path><path d="M92.09344 972.8l190.14656-228.52096 29.92128 149.62688 170.1888-359.69024 43.3664 70.30272L359.62368 972.8z" fill="#6E6E96" opacity=".15" p-id="4759"></path><path d="M770.66752 112.36352l-49.08544 275.90144 59.52 125.47584-131.95264-127.7952z" fill="#FFFFFF" p-id="4760"></path></svg>